# xmcd
# Copyright (C) 1995-1998 Ti Kan
#
# Track frame offsets:
#       150
#       14787
#       30275
#       49912
#       62500
#       76650
#       91125
#       108700
#       125625
#       139700
#       157775
#
# Disc length: 2204 seconds
#
# Revision: 2
# Processed by: cddbd v1.4PL0 Copyright (c) Steve Scherf et al.
# Submitted via: CD-Transfer v1.0
#
DISCID=83089a0b
DTITLE=Royal Ratpack - Baking Powder
DYEAR=1999
DGENRE=
TTITLE0=Allready Gone
TTITLE1=You Better Dance
TTITLE2=Walking
TTITLE3=Breathe
TTITLE4=Dancing
TTITLE5=Bored Yearning
TTITLE6=Untitled
TTITLE7=Plastic Jesus
TTITLE8=Kilkenny Rose
TTITLE9=Julia
TTITLE10=Get Lost
EXTD=
EXTT0=
EXTT1=
EXTT2=
EXTT3=
EXTT4=
EXTT5=
EXTT6=
EXTT7=
EXTT8=
EXTT9=
EXTT10=
PLAYORDER=
